<?xml version="1.0" encoding="utf-8"?>
<!-- Generator: Adobe Illustrator 16.0.0, SVG Export Plug-In . SVG Version: 6.00 Build 0)  -->
<!DOCTYPE svg PUBLIC "-//W3C//DTD SVG 1.1//EN" "http://www.w3.org/Graphics/SVG/1.1/DTD/svg11.dtd">
<svg version="1.1" id="Layer_1" xmlns="http://www.w3.org/2000/svg" xmlns:xlink="http://www.w3.org/1999/xlink" x="0px" y="0px"
	 width="249.02px" height="60px" viewBox="0 0 249.02 60" enable-background="new 0 0 249.02 60" xml:space="preserve">
<g>
	<path fill="#EC008C" d="M58.235,22.516c0.986,1.245,1.425,2.525,1.317,3.842s-0.64,3.464-1.594,6.443L51.672,52.39h-13.45
		l6.471-20.293c0.585-1.796,0.601-3.245,0.046-4.347c-0.709-1.551-2.743-2.326-6.101-2.326c-3.482,0-6.371,0.771-8.666,2.311
		c-2.296,1.541-3.905,3.74-4.83,6.597L19.366,52.39H6.239L20.66,7.426h13.126l-5.13,15.947c2.526-1.938,5.168-3.29,7.927-4.056
		c2.757-0.766,5.523-1.147,8.296-1.147c3.112,0,5.824,0.357,8.135,1.071C55.323,19.955,57.064,21.047,58.235,22.516z"/>
	<path fill="#EC008C" d="M73.513,53.553c-8.659,0-14.551-1.739-17.678-5.219c-3.128-3.479-3.906-7.667-2.334-12.564
		c1.54-4.815,5.006-8.988,10.399-12.519c5.392-3.53,12.417-5.296,21.076-5.296c8.658,0,14.543,1.766,17.655,5.296
		c3.112,3.53,3.897,7.703,2.357,12.519c-1.572,4.897-5.046,9.086-10.422,12.564C89.188,51.813,82.171,53.553,73.513,53.553z
		 M91.169,35.77c1.078-3.347,0.87-5.923-0.624-7.729c-1.495-1.806-4.167-2.709-8.019-2.709c-3.852,0-7.103,0.903-9.752,2.709
		c-2.65,1.806-4.514,4.382-5.592,7.729c-1.079,3.347-0.871,5.928,0.624,7.744c1.494,1.816,4.167,2.724,8.019,2.724
		c3.852,0,7.102-0.907,9.752-2.724S90.09,39.116,91.169,35.77z"/>
	<path fill="#EC008C" d="M110.7,7.426h12.941l-7.811,24.304l20.429-12.55h16.314L130.85,31.943l11.786,20.446h-15.899l-7.487-14.264
		l-6.702,3.765l-3.328,10.499H96.279L110.7,7.426z"/>
	<path fill="#EC008C" d="M150.659,7.426h12.94l-7.811,24.304l20.429-12.55h16.314l-21.723,12.764l11.786,20.446h-15.899
		l-7.487-14.264l-6.701,3.765l-3.328,10.499h-12.941L150.659,7.426z"/>
	<path fill="#EC008C" d="M188.26,52.39h-16.546l29.256-22.986l-13.727-22.13h17.008l7.441,14.661l17.193-14.661h16.454
		l-27.824,21.762l14.651,23.354h-17.285l-8.042-15.365L188.26,52.39z"/>
</g>
</svg>
