<?xml version="1.0" encoding="utf-8"?>
<!-- Generator: Adobe Illustrator 16.0.0, SVG Export Plug-In . SVG Version: 6.00 Build 0)  -->
<!DOCTYPE svg PUBLIC "-//W3C//DTD SVG 1.1//EN" "http://www.w3.org/Graphics/SVG/1.1/DTD/svg11.dtd">
<svg version="1.1" id="Layer_1" xmlns="http://www.w3.org/2000/svg" xmlns:xlink="http://www.w3.org/1999/xlink" x="0px" y="0px"
	 width="1869.565px" height="1860.87px" viewBox="0 0 1869.565 1860.87" enable-background="new 0 0 1869.565 1860.87"
	 xml:space="preserve">
<radialGradient id="SVGID_1_" cx="8074.728" cy="29174.2949" r="6169.5771" gradientTransform="matrix(-0.0023 -0.1473 -0.1496 0.0025 5317.1406 2058.0896)" gradientUnits="userSpaceOnUse">
	<stop  offset="0" style="stop-color:#D8A5C0"/>
	<stop  offset="1" style="stop-color:#D14786"/>
</radialGradient>
<path fill="url(#SVGID_1_)" d="M11.171,956.948C3.292,455.011,410.072,41.26,919.797,32.794
	c509.708-8.459,929.303,391.567,937.219,893.506c7.884,501.915-398.902,915.681-908.63,924.142
	C438.66,1858.918,19.078,1458.881,11.171,956.948z"/>
<g>
	<g>
		<path fill="#FFF4CE" d="M272.244,1061.1c0,0-161.23,452.365,472.99,689.589c203.01,75.907,935.23-88.269,822.354-711.608"/>
	</g>
	
		<linearGradient id="SVGID_2_" gradientUnits="userSpaceOnUse" x1="-396.3086" y1="1829.104" x2="795.3057" y2="1829.104" gradientTransform="matrix(1.28 0 0 -1.28 661.2919 2966.5815)">
		<stop  offset="0" style="stop-color:#E9BF98"/>
		<stop  offset="0.7413" style="stop-color:#EBBC8F"/>
		<stop  offset="1" style="stop-color:#ECBB8A"/>
	</linearGradient>
	<path fill="url(#SVGID_2_)" d="M1578.327,1077.653c53.724-270.312-57.498-247.333,16.404-419.27l-0.38,0.578
		c2.64-3.724,2.236-8.973,5.847-12.192c61.539-225.013,115.148-508.333,48.017-633.789
		c-130.889-2.88-352.521,228.557-420.933,321.858c-24.654,33.386-28.833,41.696-52.946,38.302
		c-105.215-40.254-400.66-71.398-565.714-1.715L473.804,252.977l-37.611-33.13c-0.399-0.344-40.165-42.683-92.125-77.642
		C188.942,37.822,162.839-41.689,154.017,206.061c1.314,570.532,221.852,494.385,116.551,778.622
		c-7.669,71.131-27.865,108.139-14.414,159.176c234.161,199.865,494.455,22.089,541.355-2.313
		c115.231-59.876,195.002-19.743,361.592,63.001C1159.102,1204.545,1529.968,1303.833,1578.327,1077.653"/>
	<path fill="#FFFFFF" d="M628.351,734.41c32.44,17.646,52.283,72.585,36.021,100.421c-8.297,14.172-25.199,15.209-39.042,9.471
		c-30.527-12.63-61.595-25.113-89.129-44.86c-12.926-9.265-14.208-18.71-9.454-30.708
		C545.974,719.719,582.649,711.655,628.351,734.41z"/>
	<path fill="#1C1010" d="M881.022,1428.744c0.858-10.118-3.513-14.688-12.564-17.716c-69.395-23.125-81.979-81.968-76.785-137.307
		c2.733-29.08,19.184-41.558,48.009-40.988c34.434,0.633,68.93,1.451,103.378,2.569c29.958,0.978,46.696,15.622,48.625,46.614
		c3.17,52.148-20.758,116.142-82.329,130.222c-9.688,2.237-13.012,7.024-13.021,17.009"/>
	<path fill="#1C1010" d="M769.166,1462.575c-22.243,8.52-13.345,10.374-40.049,23.298c-19.949,9.657-31.153,7.49-48.377-11.006
		c-17.196-18.518-34.85-43.311-38.935-56.995c-4.1-13.684-4.07-31.254,1.294-47.834c0,0,17.872-19.56,0.48-29.05
		c0,0-32.387,30.89-15.066,80.745c14.585,42.069,31.885,93.688,84.455,86.235c66.479-9.479,118.418-75.575,166.768-69.899
		c48.348,5.701,140.034,44.096,175.149,49.433c35.184,5.415,93.024-20.362,97.939-42.855c8.526-38.874,11.635-70.74,2.172-94.935
		c-12.515-31.956-18.358,31.179-14.651,62.965c2.792,24.16-14.256,44.913-27.552,49.087c-13.34,4.232-44.186,12.407-70.519,7.261
		c-26.327-5.164-122.603-39.053-135.683-43.872c-13.129-4.845-48.339-1.239-52.778-1.348"/>
	<path fill="#DE826A" stroke="#1C1010" stroke-width="3.7149" stroke-miterlimit="10" d="M784.102,1478.792
		c0,0-30.358,73.854,30.813,97.956c61.163,24.064,96.186,33.965,131.774,16.723c35.733-17.233,75.791-34.362,76.134-52.432
		c0.443-18.115,5.444-45.08,1.274-54.253c-4.192-9.14-167.265-117.125-241.296-5.79"/>
	<path fill="#1C1010" d="M557.108,950.806c0,0-80.624-11.031-112.836,55.128c-32.297,66.197,21.455,121.356,69.85,121.356
		c48.387,0,139.77,11.026,166.618-49.638c26.856-60.687,5.35-93.783-112.856-126.847"/>
	<path fill="#FFFFFF" d="M610.87,978.366c0,0-43.024,5.536-26.875,44.135c16.155,38.6,37.612,33.09,59.104,16.58
		C664.592,1022.526,648.468,983.87,610.87,978.366z"/>
	<path fill="#1C1010" d="M1256.344,950.806c0,0,80.673-11.031,112.894,55.128c32.228,66.197-21.518,121.356-69.859,121.356
		c-48.391,0-139.777,11.026-166.636-49.638c-26.904-60.687-5.388-93.783,112.876-126.847"/>
	<path fill="#FFFFFF" d="M1202.627,978.366c0,0,42.991,5.536,26.842,44.135c-16.125,38.6-37.573,33.09-59.067,16.58
		C1148.863,1022.5,1164.962,983.87,1202.627,978.366z"/>
	<path fill="#E29C6E" d="M218.486,150.908c0,0-53.715,325.454,107.539,557.17c64.463,16.544,188.097-143.435,198.883-242.739
		C535.615,366.032,326.025,195.038,218.486,150.908z"/>
	<path fill="#E29C6E" d="M1607.748,79.2c0,0,53.728,325.48-107.554,557.181c-64.477,16.52-188.077-143.48-198.806-242.798
		C1290.609,294.298,1500.194,123.33,1607.748,79.2z"/>
	<path fill="#FFFFFF" d="M1168.031,734.41c-32.46,17.646-52.331,72.585-36.047,100.421c8.301,14.172,25.178,15.209,39.032,9.471
		c30.52-12.63,61.547-25.113,89.118-44.86c12.886-9.265,14.217-18.71,9.51-30.708
		C1250.361,719.719,1213.689,711.655,1168.031,734.41z"/>
</g>
</svg>
